PathFileType	4	(X/Y/Z)	C:\Users\Biomechanik\SynologyDrive\AlexP\Athlete_03\Athlete_3_22_07_06\sq_80_EMG\marker_experimental.trc																																																																																																																																																																												
DataRate	CameraRate	NumFrames	NumMarkers	Units	OrigDataRate	OrigDataStartFrame	OrigNumFrames																																																																																																																																																																								
200	200	4	58	mm	200	526	1403																																																																																																																																																																								
Frame#	Time	BL			BR			GLAB			RFHD			LFHD			C7			T6			SPINMOL			SPINM2			SPINM3			T12			BELTOL			BELT2			BELT3			SACROL			SACR2			SACR3			LTHOL			LTH2			LTH3			LSHAOL			LSHA2			LSHA3			LHEE			LTOE			LM5			RTHOL			RTH2			RTH3			RSHAOL			RSHA2			RSHA3			RHEE			RTOE			RM5			STRN			XIPH			LACR			LUAOL			LUA2			LUA3			LLAOL			LLA2			LLA3			LWRU			RACR			RUAOL			RUA3			RLAOL			RLA2			RLA3			RWRU			USERMO0			USERMO1			USERMO2			USERMO3			USERMO4			USERMO5		
		X1	Y1	Z1	X2	Y2	Z2	X3	Y3	Z3	X4	Y4	Z4	X5	Y5	Z5	X6	Y6	Z6	X7	Y7	Z7	X8	Y8	Z8	X9	Y9	Z9	X10	Y10	Z10	X11	Y11	Z11	X12	Y12	Z12	X13	Y13	Z13	X14	Y14	Z14	X15	Y15	Z15	X16	Y16	Z16	X17	Y17	Z17	X18	Y18	Z18	X19	Y19	Z19	X20	Y20	Z20	X21	Y21	Z21	X22	Y22	Z22	X23	Y23	Z23	X24	Y24	Z24	X25	Y25	Z25	X26	Y26	Z26	X27	Y27	Z27	X28	Y28	Z28	X29	Y29	Z29	X30	Y30	Z30	X31	Y31	Z31	X32	Y32	Z32	X33	Y33	Z33	X34	Y34	Z34	X35	Y35	Z35	X36	Y36	Z36	X37	Y37	Z37	X38	Y38	Z38	X39	Y39	Z39	X40	Y40	Z40	X41	Y41	Z41	X42	Y42	Z42	X43	Y43	Z43	X44	Y44	Z44	X45	Y45	Z45	X46	Y46	Z46	X47	Y47	Z47	X48	Y48	Z48	X49	Y49	Z49	X50	Y50	Z50	X51	Y51	Z51	X52	Y52	Z52	X53	Y53	Z53	X54	Y54	Z54	X55	Y55	Z55	X56	Y56	Z56	X57	Y57	Z57	X58	Y58	Z58
																																																																																																																																																																															
527	2.63	195.386734	1258.48584	-2284.234619	213.1735535	1288.912109	-62.25955963	570.937561	1418.730591	-1149.969604	506.7402954	1435.419556	-1077.939331	513.8098755	1435.283081	-1231.430054	305.2842407	1369.189087	-1158.386719	143.0081635	1244.884766	-1167.173218	120.1544876	1215.910645	-1172.663818	83.92879486	1163.128052	-1124.595581	92.86211395	1160.331299	-1173.732788	73.99862671	1105.808594	-1173.31897	41.12689209	1069.386597	-1171.62439	28.7528019	1009.490479	-1120.468994	25.10983276	1009.425659	-1170.496094	20.46590233	931.0598755	-1198.194336	27.45236969	940.9491577	-1148.555542	-3.135876894	883.0531006	-1159.205078	153.8627014	725.2370605	-1421.859375	115.1270065	655.3533936	-1416.338501	161.3217163	664.9311523	-1434.506226	143.9150696	327.0375366	-1522.836914	112.706955	254.6541901	-1527.903564	158.8054199	269.1348267	-1539.979858	115.7899323	35.61505127	-1510.719238	322.6176453	49.27088928	-1551.09668	265.4779053	25.23419189	-1648.83374	116.9225388	696.2036133	-919.0108643	155.3422852	635.59375	-883.9628296	110.9228287	635.2556152	-907.6844482	85.6403656	317.2516174	-825.5223999	131.037262	261.555481	-791.994873	87.77820587	256.4133301	-816.90271	89.9232254	35.52600098	-845.6378784	283.301178	46.259758	-766.9693604	216.0582275	36.71604919	-682.6862793	389.4902039	1220.473389	-1164.781128	357.7153931	1069.799683	-1158.313599	273.7304382	1316.942749	-1350.266846	140.0544128	1234.738647	-1380.790894	99.78502655	1196.805542	-1343.91687	103.932312	1191.771606	-1394.244385	87.98070526	1159.069824	-1468.277222	132.6030121	1172.10437	-1513.597534	131.4675751	1205.224976	-1475.816284	182.1770782	1244.948608	-1528.971802	279.1879272	1317.812012	-979.5391235	148.6745758	1221.879395	-938.0866089	91.01317596	1199.28772	-941.0643921	99.34186554	1186.936279	-862.3156128	149.0027924	1227.99353	-867.9502563	140.2220306	1211.309448	-820.3139038	176.4705658	1248.218872	-799.8724365	0.0550998	0.0117808	-0.052180398	0.0115377	0.0721462	-0.055873699	0.031689901	0.028258501	-0.030537801	0.125242993	0.216565996	-0.809014022	0.349997997	2.719249964	-0.352355003	2.702039957	0	0
528	2.635	195.4149933	1258.36438	-2284.22876	213.2223663	1288.975586	-62.25889587	570.9667358	1418.671875	-1150.025513	506.7801514	1435.38269	-1078.003784	513.8396606	1435.19165	-1231.486816	305.264801	1369.187012	-1158.410156	142.9897003	1244.855957	-1167.174438	120.1346436	1215.896851	-1172.659668	83.92502594	1163.120239	-1124.572998	92.80725098	1160.332764	-1173.720093	73.93660736	1105.841919	-1173.291504	41.06744385	1069.425537	-1171.575073	28.73114777	1009.523132	-1120.421997	25.05668449	1009.46814	-1170.446899	20.39912987	931.1029053	-1198.134888	27.39696884	940.9870605	-1148.506836	-3.206106663	883.0969849	-1159.146484	153.6455688	725.2363281	-1421.902222	114.9223557	655.3404541	-1416.342407	161.1073914	664.9313354	-1434.551636	143.7820435	327.0284729	-1522.834595	112.6007538	254.6327362	-1527.887329	158.686676	269.1319885	-1539.987549	115.7712708	35.60276413	-1510.739258	322.6110229	49.28055191	-1551.104248	265.4722595	25.22924423	-1648.833984	116.8912201	696.192749	-919.0505981	155.3053436	635.5593262	-884.0368652	110.8752136	635.246521	-907.7265625	85.56797791	317.2348938	-825.5633545	130.97435	261.5565186	-792.0090332	87.70864105	256.4113464	-816.9073486	89.91134644	35.52013779	-845.6309814	283.2965393	46.26512527	-766.9708862	216.0523834	36.70911789	-682.6890259	389.5890808	1220.541626	-1164.812256	357.8499146	1069.872925	-1158.336304	273.733429	1316.946533	-1350.304565	140.0860901	1234.684326	-1380.855591	99.82430267	1196.748657	-1343.972778	103.9820862	1191.704468	-1394.29834	88.05625153	1158.982178	-1468.301147	132.6754456	1172.049438	-1513.614624	131.5202637	1205.157349	-1475.831421	182.2159729	1244.908325	-1528.969482	279.2309265	1317.809814	-979.5548096	148.7504272	1221.83728	-938.050354	91.05327606	1199.213135	-941.050354	99.43132782	1186.885376	-862.289856	149.0733643	1227.964355	-867.9352417	140.3015137	1211.287964	-820.2912598	176.5223846	1248.219482	-799.8616943	0.055062201	0.0121741	-0.051961601	0.0112688	0.070772298	-0.054612901	0.031529699	0.0289189	-0.0313005	0.125060007	0.217758998	-0.810105026	0.35146299	2.721410036	-0.351877987	2.701060057	0	0
529	2.64	195.4431458	1258.247803	-2284.219971	213.2722626	1289.04541	-62.25499725	570.9970703	1418.619263	-1150.083862	506.8201294	1435.350342	-1078.068604	513.8671875	1435.103516	-1231.545776	305.2467346	1369.187012	-1158.433594	142.9723663	1244.827759	-1167.175293	120.1162491	1215.883301	-1172.657104	83.92279816	1163.11084	-1124.553833	92.75507355	1160.333862	-1173.710693	73.87734985	1105.874146	-1173.268066	41.01248932	1069.462646	-1171.53064	28.71258163	1009.554321	-1120.379272	25.00737762	1009.508545	-1170.402588	20.33703613	931.140564	-1198.082031	27.34456444	941.0216064	-1148.463501	-3.269391298	883.1356812	-1159.093628	153.4474487	725.2351074	-1421.943237	114.7332077	655.3287354	-1416.348022	160.9097137	664.9309082	-1434.596558	143.6607819	327.0204468	-1522.833984	112.5041962	254.6134186	-1527.875488	158.5793152	269.1297913	-1539.995605	115.754425	35.59178925	-1510.756958	322.60495	49.28934479	-1551.111328	265.4677429	25.22485542	-1648.834961	116.8659363	696.1813354	-919.0916748	155.2750549	635.524353	-884.1136475	110.833374	635.2365112	-907.7703247	85.50268555	317.216095	-825.6070557	130.9174194	261.5551453	-792.0257568	87.64528656	256.4067688	-816.914917	89.90104675	35.5148735	-845.6260376	283.2928772	46.26917267	-766.9731445	216.0469666	36.70270538	-682.6930542	389.6892395	1220.610962	-1164.845093	357.9840393	1069.948242	-1158.362061	273.7383728	1316.952271	-1350.343018	140.116333	1234.633667	-1380.918579	99.86304474	1196.695923	-1344.026367	104.0305862	1191.641846	-1394.350464	88.12998199	1158.899048	-1468.323242	132.7467041	1171.998901	-1513.629883	131.5728607	1205.09314	-1475.845459	182.2548523	1244.871704	-1528.964233	279.2767944	1317.80896	-979.5696411	148.8293152	1221.798218	-938.0129395	91.10393524	1199.143188	-941.0328979	99.52389526	1186.838135	-862.2625122	149.1467285	1227.939087	-867.9179687	140.3835144	1211.269775	-820.2671509	176.5766144	1248.223022	-799.8488159	0.055157799	0.0125544	-0.0520721	0.011007	0.069632702	-0.0532334	0.0314309	0.0294652	-0.032228999	0.123778	0.218487993	-0.811293006	0.353549004	2.725549936	-0.350979	2.702640057	0	0
530	2.645	195.4710083	1258.136719	-2284.208008	213.3229065	1289.121338	-62.24797821	571.0300903	1418.571289	-1150.144897	506.8617859	1435.321289	-1078.133667	513.8935547	1435.017212	-1231.607056	305.2310791	1369.188843	-1158.457764	142.9562836	1244.800293	-1167.17627	120.099472	1215.870239	-1172.65625	83.92202759	1163.100098	-1124.538818	92.7057724	1160.334961	-1173.704956	73.82099152	1105.905273	-1173.249268	40.96187973	1069.498169	-1171.491455	28.69652557	1009.584595	-1120.341187	24.96152496	1009.547363	-1170.363281	20.27772522	931.1723633	-1198.036743	27.29429626	941.0521851	-1148.425659	-3.325965881	883.1681519	-1159.046631	153.2701569	725.2333374	-1421.981689	114.5620346	655.3181152	-1416.355469	160.7310028	664.9295044	-1434.640137	143.5528564	327.0132141	-1522.834106	112.418541	254.5962067	-1527.867188	158.4846497	269.1279907	-1540.003174	115.7396164	35.58216476	-1510.772339	322.5996094	49.29708481	-1551.117798	265.4645691	25.22135544	-1648.836426	116.8475113	696.170166	-919.1327515	155.2529755	635.4903564	-884.1908569	110.7984772	635.2261353	-907.8137817	85.44703674	317.1963501	-825.6507568	130.8688202	261.5516663	-792.0439453	87.59068298	256.3999023	-816.9247437	89.89229584	35.51024246	-845.6228638	283.2902222	46.27192307	-766.9761963	216.0422821	36.69724274	-682.6980591	389.7909241	1220.680786	-1164.879395	358.1188354	1070.024658	-1158.390259	273.7458191	1316.959717	-1350.381714	140.1451111	1234.587646	-1380.979126	99.90123749	1196.648193	-1344.076904	104.0773468	1191.584839	-1394.399658	88.20114899	1158.821655	-1468.342773	132.8161316	1171.953125	-1513.642822	131.6246033	1205.033325	-1475.857178	182.2936401	1244.839111	-1528.955933	279.3256531	1317.809082	-979.5834961	148.911026	1221.762695	-937.9761963	91.16534424	1199.078979	-941.0131836	99.61808014	1186.795898	-862.2342529	149.2220459	1227.918457	-867.8991699	140.4667053	1211.255981	-820.2423096	176.6327515	1248.229858	-799.8340454	0.0554034	0.0129015	-0.052459002	0.010763	0.068801403	-0.051808499	0.0313702	0.029884599	-0.0332928	0.121395998	0.218741	-0.812389016	0.356139004	2.731709957	-0.349667013	2.70675993	0	0
